<mxfile host="app.diagrams.net" agent="Mozilla/5.0 (Windows NT 10.0; Win64; x64) AppleWebKit/537.36 (KHTML, like Gecko) Chrome/138.0.0.0 Safari/537.36" version="27.1.6">
  <diagram id="rbac-arch-2025" name="RBAC System Architecture">
    <mxGraphModel dx="1042" dy="527" grid="1" gridSize="10" guides="1" tooltips="1" connect="1" arrows="1" fold="1" page="1" pageScale="1" pageWidth="1200" pageHeight="800" math="0" shadow="0">
      <root>
        <mxCell id="0" />
        <mxCell id="1" parent="0" />
        <mxCell id="frontend" value="Frontend (React, Ant Design, RBAC UI) - RBAC Pages - RBAC Context - API Hooks" style="rounded=1;whiteSpace=wrap;html=1;fillColor=#23272f;strokeColor=#722ed1;fontColor=#fff;" parent="1" vertex="1">
          <mxGeometry x="60" y="120" width="220" height="120" as="geometry" />
        </mxCell>
        <mxCell id="backend" value="Backend (FastAPI) - Routers (/rbac/*) - Services (role, ABAC, audit) - Models (SQLModel)" style="rounded=1;whiteSpace=wrap;html=1;fillColor=#181c24;strokeColor=#1890ff;fontColor=#fff;" parent="1" vertex="1">
          <mxGeometry x="350" y="110" width="260" height="140" as="geometry" />
        </mxCell>
        <mxCell id="db" value="Database (SQLModel, Alembic) - User, Role, Permission - ResourceRole, AccessRequest - RbacAuditLog" style="rounded=1;whiteSpace=wrap;html=1;fillColor=#23272f;strokeColor=#52c41a;fontColor=#fff;" parent="1" vertex="1">
          <mxGeometry x="670" y="120" width="220" height="120" as="geometry" />
        </mxCell>
        <mxCell id="api-arrow" style="edgeStyle=orthogonalEdgeStyle;rounded=0;orthogonalLoop=1;jettySize=auto;html=1;strokeColor=#722ed1;endArrow=block;endFill=1;" parent="1" source="frontend" target="backend" edge="1">
          <mxGeometry relative="1" as="geometry" />
        </mxCell>
        <mxCell id="orm-arrow" style="edgeStyle=orthogonalEdgeStyle;rounded=0;orthogonalLoop=1;jettySize=auto;html=1;strokeColor=#1890ff;endArrow=block;endFill=1;" parent="1" source="backend" target="db" edge="1">
          <mxGeometry relative="1" as="geometry" />
        </mxCell>
        <mxCell id="mgmt" value="User/Role/Permission Management" style="rounded=1;whiteSpace=wrap;html=1;fillColor=#fffbe6;strokeColor=#faad14;" parent="1" vertex="1">
          <mxGeometry x="60" y="300" width="220" height="60" as="geometry" />
        </mxCell>
        <mxCell id="mgmt-arrow" style="edgeStyle=orthogonalEdgeStyle;rounded=0;orthogonalLoop=1;jettySize=auto;html=1;strokeColor=#faad14;endArrow=block;endFill=1;" parent="1" source="frontend" target="mgmt" edge="1">
          <mxGeometry relative="1" as="geometry" />
        </mxCell>
        <mxCell id="resource" value="Resource-level RBAC (ResourceRole)" style="rounded=1;whiteSpace=wrap;html=1;fillColor=#e6f7ff;strokeColor=#1890ff;" parent="1" vertex="1">
          <mxGeometry x="370" y="370" width="220" height="60" as="geometry" />
        </mxCell>
        <mxCell id="resource-arrow" style="edgeStyle=orthogonalEdgeStyle;rounded=0;orthogonalLoop=1;jettySize=auto;html=1;strokeColor=#1890ff;endArrow=block;endFill=1;" parent="1" source="backend" target="resource" edge="1">
          <mxGeometry relative="1" as="geometry" />
        </mxCell>
        <mxCell id="abac" value="ABAC (Attribute-Based Access Control) - Conditions, Row-level Security" style="rounded=1;whiteSpace=wrap;html=1;fillColor=#f6ffed;strokeColor=#52c41a;" parent="1" vertex="1">
          <mxGeometry x="670" y="10" width="220" height="60" as="geometry" />
        </mxCell>
        <mxCell id="abac-arrow" style="edgeStyle=orthogonalEdgeStyle;rounded=0;orthogonalLoop=1;jettySize=auto;html=1;strokeColor=#52c41a;endArrow=block;endFill=1;" parent="1" source="backend" target="abac" edge="1">
          <mxGeometry relative="1" as="geometry" />
        </mxCell>
        <mxCell id="delegation" value="Delegation &amp; Access Review (AccessRequest)" style="rounded=1;whiteSpace=wrap;html=1;fillColor=#fff0f6;strokeColor=#eb2f96;" parent="1" vertex="1">
          <mxGeometry x="60" width="220" height="60" as="geometry" />
        </mxCell>
        <mxCell id="delegation-arrow" style="edgeStyle=orthogonalEdgeStyle;rounded=0;orthogonalLoop=1;jettySize=auto;html=1;strokeColor=#eb2f96;endArrow=block;endFill=1;" parent="1" source="backend" target="delegation" edge="1">
          <mxGeometry relative="1" as="geometry" />
        </mxCell>
        <mxCell id="audit" value="Audit Logging (RbacAuditLog)" style="rounded=1;whiteSpace=wrap;html=1;fillColor=#f9f0ff;strokeColor=#722ed1;" parent="1" vertex="1">
          <mxGeometry x="370" width="220" height="60" as="geometry" />
        </mxCell>
        <mxCell id="audit-arrow" style="edgeStyle=orthogonalEdgeStyle;rounded=0;orthogonalLoop=1;jettySize=auto;html=1;strokeColor=#722ed1;endArrow=block;endFill=1;" parent="1" source="backend" target="audit" edge="1">
          <mxGeometry relative="1" as="geometry" />
        </mxCell>
        <mxCell id="security" value="Security &amp; Compliance - RBAC Checks - ABAC Extensibility - Multi-Tenant Ready" style="rounded=1;whiteSpace=wrap;html=1;fillColor=#fff1f0;strokeColor=#f5222d;" parent="1" vertex="1">
          <mxGeometry x="670" y="380" width="220" height="60" as="geometry" />
        </mxCell>
        <mxCell id="security-arrow" style="edgeStyle=orthogonalEdgeStyle;rounded=0;orthogonalLoop=1;jettySize=auto;html=1;strokeColor=#f5222d;endArrow=block;endFill=1;" parent="1" source="backend" target="security" edge="1">
          <mxGeometry relative="1" as="geometry" />
        </mxCell>
      </root>
    </mxGraphModel>
  </diagram>
</mxfile>
